<svg xmlns="http://www.w3.org/2000/svg" viewBox="-1.02 -1.02 2.04 2.04" width="1024" height="1024" xmlns:c2pa="http://c2pa.org/manifest"><metadata><c2pa:manifest>AAAWgmp1bWIAAAAeanVtZGMycGEAEQAQgAAAqgA4m3EDYzJwYQAAABZcanVtYgAAAEdqdW1kYzJtYQARABCAAACqADibcQN1cm46YzJwYTphZjFlYTc1Ni02Yjk3LTQ3ZWItYjY4MS0xNmM2NmIyMGMxNDMAAAADl2p1bWIAAAApanVtZGMyYXMAEQAQgAAAqgA4m3EDYzJwYS5hc3NlcnRpb25zAAAAALxqdW1iAAAARGp1bWRjYm9yABEAEIAAAKoAOJtxE2MycGEuaW5ncmVkaWVudC52MwAAAAAYYzJzaKZf2Q5jNRnjnBEEnvYlF+EAAABwY2JvcqNpZGM6Zm9ybWF0bWltYWdlL3N2Zyt4bWxqaW5zdGFuY2VJRHgseG1wOmlpZDpiZTljZjUxNi0xMzAzLTRkY2YtOWI5OC1lNmFjYWI3OTc1MjFscmVsYXRpb25zaGlwaHBhcmVudE9mAAAB4mp1bWIAAABBanVtZGNib3IAEQAQgAAAqgA4m3ETYzJwYS5hY3Rpb25zLnYyAAAAABhjMnNoK5NIv5sbpA5nvLocQD+tygAAAZljYm9yomdhY3Rpb25zgqJmYWN0aW9ua2MycGEub3BlbmVkanBhcmFtZXRlcnOha2luZ3JlZGllbnRzgaJjdXJseC1zZWxmI2p1bWJmPWMycGEuYXNzZXJ0aW9ucy9jMnBhLmluZ3JlZGllbnQudjNkaGFzaFgg20fLgOCl2sZf2Y97XJq9uCDN0Soy5nFwTnNj7MV1Ho2kZmFjdGlvbngdY29tLmFudGhyb3BpYy5jbGF1ZGUucHJvdmlkZWRqcGFyYW1ldGVyc6F4H2NvbS5hbnRocm9waWMub3JpZ2luLWNvbmZpZGVuY2VndW5rbm93bmtkZXNjcmlwdGlvbnhmQ2xhdWRlIHByb3ZpZGVkIHRoaXMgZmlsZSBhdCB0aGUgcmVxdWVzdCBvZiBhIHVzZXIgYW5kIG1heSBoYXZlIGNyZWF0ZWQgb3IgbW9kaWZpZWQgdGhlIGZpbGUgY29udGVudHMubXNvZnR3YXJlQWdlbnShZG5hbWVmQ2xhdWRlcmFsbEFjdGlvbnNJbmNsdWRlZPUAAADIanVtYgAAAEBqdW1kY2JvcgARABCAAACqADibcRNjMnBhLmhhc2guZGF0YQAAAAAYYzJzaLku24KKal2BOkLzHcETleMAAACAY2JvcqVjYWxnZnNoYTI1NmNwYWRNAAAAAAAAAAAAAAAAAGRoYXNoWCDhcXA2AWBwN0PgmZy1bj9+17pHkiIVG0xASL5nVbKo6WRuYW1lbmp1bWJmIG1hbmlmZXN0amV4Y2x1c2lvbnOBomVzdGFydBiiZmxlbmd0aBkeBAAAAj5qdW1iAAAAJ2p1bWRjMmNsABEAEIAAAKoAOJtxA2MycGEuY2xhaW0udjIAAAACD2Nib3KlY2FsZ2ZzaGEyNTZpc2lnbmF0dXJleE1zZWxmI2p1bWJmPS9jMnBhL3VybjpjMnBhOmFmMWVhNzU2LTZiOTctNDdlYi1iNjgxLTE2YzY2YjIwYzE0My9jMnBhLnNpZ25hdHVyZWppbnN0YW5jZUlEeCx4bXA6aWlkOjk0MjgwM2EyLTY2NTgtNDhkOS04YjE1LTVkYzllMGU3YWI5M3JjcmVhdGVkX2Fzc2VydGlvbnODomN1cmx4LXNlbGYjanVtYmY9YzJwYS5hc3NlcnRpb25zL2MycGEuaW5ncmVkaWVudC52M2RoYXNoWCDbR8uA4KXaxl/Zj3tcmr24IM3RKjLmcXBOc2PsxXUejaJjdXJseCpzZWxmI2p1bWJmPWMycGEuYXNzZXJ0aW9ucy9jMnBhLmFjdGlvbnMudjJkaGFzaFgghhAHAxL941rjsg0P9vYSWtKJ2xXL+QwOq13kCiIegw2iY3VybHgpc2VsZiNqdW1iZj1jMnBhLmFzc2VydGlvbnMvYzJwYS5oYXNoLmRhdGFkaGFzaFggEKQB2S7dHaWM1Fy4pXU0FLlNGFWgBUAqbMp8tcfhxcN0Y2xhaW1fZ2VuZXJhdG9yX2luZm+jZG5hbWVvQW50aHJvcGljIEZpbGVzZ3ZlcnNpb25lMS4wLjBrc3BlY1ZlcnNpb25lMi40LjAAABA4anVtYgAAAChqdW1kYzJjcwARABCAAACqADibcQNjMnBhLnNpZ25hdHVyZQAAABAIY2JvctKEWQISogEmGCFZAgowggIGMIIBjaADAgECAhRA5aAK7sI50L64g/oGQgU9Z1UTADAKBggqhkjOPQQDAzBJMRcwFQYDVQQKEw5BbnRocm9waWMsIFBCQzEuMCwGA1UEAxMlQW50aHJvcGljIENvbnRlbnQgQ3JlZGVudGlhbHMgUm9vdCBDQTAeFw0yNjA4MDcxODQzNTZaFw0yODA4MDYxOTQzNTZaMEQxFzAVBgNVBAoTDkFudGhyb3BpYywgUEJDMSkwJwYDVQQDEyBBbnRocm9waWMgQ2xhdWRlIENvbnRlbnQgU2lnbmluZzBZMBMGByqGSM49AgEGCCqGSM49AwEHA0IABJh6CmvLUBgFFNU0vUKlOVtE6djd17L5SuwX0LemFisBM3dkd/3cyjxFA3Qo5S46fX0/ihY0VZ7mfb9KF703t5OjWDBWMA4GA1UdDwEB/wQEAwIHgDAVBgNVHSUEDjAMBgorBgEEAYPoXgIBMAwGA1UdEwEB/wQCMAAwHwYDVR0jBBgwFoAUzlHiBIFOZFsj+OPEz5o+nMHXXMIwCgYIKoZIzj0EAwMDZwAwZAIwMXMdFJ4BetLLVY7ORuE9noqbbAZOZn/aArXyTwFAZfKrPzxF2vPoJNf1+UCdg1XGAjBwX1zd9WGqYkqmL5SFqw1QySjr1zJfpJM9+1rdDwSPLMOPOjKuiXjoU/pUUeG9RwmhY3BhZFkNngAAAAAAAAAAAAAAAAAAAAAAAAAAAAAAAAAAAAAAAAAAAAAAAAAAAAAAAAAAAAAAAAAAAAAAAAAAAAAAAAAAAAAAAAAAAAAAAAAAAAAAAAAAAAAAAAAAAAAAAAAAAAAAAAAAAAAAAAAAAAAAAAAAAAAAAAAAAAAAAAAAAAAAAAAAAAAAAAAAAAAAAAAAAAAAAAAAAAAAAAAAAAAAAAAAAAAAAAAAAAAAAAAAAAAAAAAAAAAAAAAAAAAAAAAAAAAAAAAAAAAAAAAAAAAAAAAAAAAAAAAAAAAAAAAAAAAAAAAAAAAAAAAAAAAAAAAAAAAAAAAAAAAAAAAAAAAAAAAAAAAAAAAAAAAAAAAAAAAAAAAAAAAAAAAAAAAAAAAAAAAAAAAAAAAAAAAAAAAAAAAAAAAAAAAAAAAAAAAAAAAAAAAAAAAAAAAAAAAAAAAAAAAAAAAAAAAAAAAAAAAAAAAAAAAAAAAAAAAAAAAAAAAAAAAAAAAAAAAAAAAAAAAAAAAAAAAAAAAAAAAAAAAAAAAAAAAAAAAAAAAAAAAAAAAAAAAAAAAAAAAAAAAAAAAAAAAAAAAAAAAAAAAAAAAAAAAAAAAAAAAAAAAAAAAAAAAAAAAAAAAAAAAAAAAAAAAAAAAAAAAAAAAAAAAAAAAAAAAAAAAAAAAAAAAAAAAAAAAAAAAAAAAAAAAAAAAAAAAAAAAAAAAAAAAAAAAAAAAAAAAAAAAAAAAAAAAAAAAAAAAAAAAAAAAAAAAAAAAAAAAAAAAAAAAAAAAAAAAAAAAAAAAAAAAAAAAAAAAAAAAAAAAAAAAAAAAAAAAAAAAAAAAAAAAAAAAAAAAAAAAAAAAAAAAAAAAAAAAAAAAAAAAAAAAAAAAAAAAAAAAAAAAAAAAAAAAAAAAAAAAAAAAAAAAAAAAAAAAAAAAAAAAAAAAAAAAAAAAAAAAAAAAAAAAAAAAAAAAAAAAAAAAAAAAAAAAAAAAAAAAAAAAAAAAAAAAAAAAAAAAAAAAAAAAAAAAAAAAAAAAAAAAAAAAAAAAAAAAAAAAAAAAAAAAAAAAAAAAAAAAAAAAAAAAAAAAAAAAAAAAAAAAAAAAAAAAAAAAAAAAAAAAAAAAAAAAAAAAAAAAAAAAAAAAAAAAAAAAAAAAAAAAAAAAAAAAAAAAAAAAAAAAAAAAAAAAAAAAAAAAAAAAAAAAAAAAAAAAAAAAAAAAAAAAAAAAAAAAAAAAAAAAAAAAAAAAAAAAAAAAAAAAAAAAAAAAAAAAAAAAAAAAAAAAAAAAAAAAAAAAAAAAAAAAAAAAAAAAAAAAAAAAAAAAAAAAAAAAAAAAAAAAAAAAAAAAAAAAAAAAAAAAAAAAAAAAAAAAAAAAAAAAAAAAAAAAAAAAAAAAAAAAAAAAAAAAAAAAAAAAAAAAAAAAAAAAAAAAAAAAAAAAAAAAAAAAAAAAAAAAAAAAAAAAAAAAAAAAAAAAAAAAAAAAAAAAAAAAAAAAAAAAAAAAAAAAAAAAAAAAAAAAAAAAAAAAAAAAAAAAAAAAAAAAAAAAAAAAAAAAAAAAAAAAAAAAAAAAAAAAAAAAAAAAAAAAAAAAAAAAAAAAAAAAAAAAAAAAAAAAAAAAAAAAAAAAAAAAAAAAAAAAAAAAAAAAAAAAAAAAAAAAAAAAAAAAAAAAAAAAAAAAAAAAAAAAAAAAAAAAAAAAAAAAAAAAAAAAAAAAAAAAAAAAAAAAAAAAAAAAAAAAAAAAAAAAAAAAAAAAAAAAAAAAAAAAAAAAAAAAAAAAAAAAAAAAAAAAAAAAAAAAAAAAAAAAAAAAAAAAAAAAAAAAAAAAAAAAAAAAAAAAAAAAAAAAAAAAAAAAAAAAAAAAAAAAAAAAAAAAAAAAAAAAAAAAAAAAAAAAAAAAAAAAAAAAAAAAAAAAAAAAAAAAAAAAAAAAAAAAAAAAAAAAAAAAAAAAAAAAAAAAAAAAAAAAAAAAAAAAAAAAAAAAAAAAAAAAAAAAAAAAAAAAAAAAAAAAAAAAAAAAAAAAAAAAAAAAAAAAAAAAAAAAAAAAAAAAAAAAAAAAAAAAAAAAAAAAAAAAAAAAAAAAAAAAAAAAAAAAAAAAAAAAAAAAAAAAAAAAAAAAAAAAAAAAAAAAAAAAAAAAAAAAAAAAAAAAAAAAAAAAAAAAAAAAAAAAAAAAAAAAAAAAAAAAAAAAAAAAAAAAAAAAAAAAAAAAAAAAAAAAAAAAAAAAAAAAAAAAAAAAAAAAAAAAAAAAAAAAAAAAAAAAAAAAAAAAAAAAAAAAAAAAAAAAAAAAAAAAAAAAAAAAAAAAAAAAAAAAAAAAAAAAAAAAAAAAAAAAAAAAAAAAAAAAAAAAAAAAAAAAAAAAAAAAAAAAAAAAAAAAAAAAAAAAAAAAAAAAAAAAAAAAAAAAAAAAAAAAAAAAAAAAAAAAAAAAAAAAAAAAAAAAAAAAAAAAAAAAAAAAAAAAAAAAAAAAAAAAAAAAAAAAAAAAAAAAAAAAAAAAAAAAAAAAAAAAAAAAAAAAAAAAAAAAAAAAAAAAAAAAAAAAAAAAAAAAAAAAAAAAAAAAAAAAAAAAAAAAAAAAAAAAAAAAAAAAAAAAAAAAAAAAAAAAAAAAAAAAAAAAAAAAAAAAAAAAAAAAAAAAAAAAAAAAAAAAAAAAAAAAAAAAAAAAAAAAAAAAAAAAAAAAAAAAAAAAAAAAAAAAAAAAAAAAAAAAAAAAAAAAAAAAAAAAAAAAAAAAAAAAAAAAAAAAAAAAAAAAAAAAAAAAAAAAAAAAAAAAAAAAAAAAAAAAAAAAAAAAAAAAAAAAAAAAAAAAAAAAAAAAAAAAAAAAAAAAAAAAAAAAAAAAAAAAAAAAAAAAAAAAAAAAAAAAAAAAAAAAAAAAAAAAAAAAAAAAAAAAAAAAAAAAAAAAAAAAAAAAAAAAAAAAAAAAAAAAAAAAAAAAAAAAAAAAAAAAAAAAAAAAAAAAAAAAAAAAAAAAAAAAAAAAAAAAAAAAAAAAAAAAAAAAAAAAAAAAAAAAAAAAAAAAAAAAAAAAAAAAAAAAAAAAAAAAAAAAAAAAAAAAAAAAAAAAAAAAAAAAAAAAAAAAAAAAAAAAAAAAAAAAAAAAAAAAAAAAAAAAAAAAAAAAAAAAAAAAAAAAAAAAAAAAAAAAAAAAAAAAAAAAAAAAAAAAAAAAAAAAAAAAAAAAAAAAAAAAAAAAAAAAAAAAAAAAAAAAAAAAAAAAAAAAAAAAAAAAAAAAAAAAAAAAAAAAAAAAAAAAAAAAAAAAAAAAAAAAAAAAAAAAAAAAAAAAAAAAAAAAAAAAAAAAAAAAAAAAAAAAAAAAAAAAAAAAAAAAAAAAAAAAAAAAAAAAAAAAAAAAAAAAAAAAAAAAAAAAAAAAAAAAAAAAAAAAAAAAAAAAAAAAAAAAAAAAAAAAAAAAAAAAAAAAAAAAAAAAAAAAAAAAAAAAAAAAAAAAAAAAAAAAAAAAAAAAAAAAAAAAAAAAAAAAAAAAAAAAAAAAAAAAAAAAAAAAAAAAAAAAAAAAAAAAAAAAAAAAAAAAAAAAAAAAAAAAAAAAAAAAAAAAAAAAAAAAAAAAAAAAAAAAAAAAAAAAAAAAAAAAAAAAAAAAAAAAAAAAAAAAAAAAAAAAAAAAAAAAAAAAAAAAAAAAAAAAAAAAAAAAAAAAAAAAAAAAAAAAAAAAAAAAAAAAAAAAAAAAAAAAAAAAAAAAAAAAAAAAAAAAAAAAAAAAAAAAAAAAAAAAAAAAAAAAAAAAAAAAAAAAAAAAAAAAAAAAAAAAAAAAAAAAAAAAAAAAAAAAAAAAAAAAAAAAAAAAAAAAAAAAAAAAAAAAAAAAAAAAAAAAAAAAAAAAAAAAAAAAAAAAAAAAAAAAAAAAAAAAAAAAAAAAAAAAAAAAAAAAAAAAAAAAAAAAAAAAAAAAAAAAAAAAAAAAAAAAAAAAAAAAAAAAAAAAAAAAAAAAAAAAAAAAAAAAAAAAAAAAAAAAAAAAAAAAAAAAAAAAAAAAAAAAAAAAAAAAAAAAAAAAAAAAAAAAAAAAAAAAAAAAAAAAAAAAAAAAAAAAAAAAAAAAAAAAAAAAAAAAAAAAAAAAAAAAAAAAAAAAAAAAAAAAAAAAAAAAAAAAAAAAAAAAAAAAAAAAAAAAAAAAAAAAAAAAAAAAAAAAAAAAAAAAAAAAAAAAAAAAAAAAAAAAAAAAAAAAAAAAAAAAAAAAAAAAAAAAAAAAAAAAAAAAAAAAAAAAAAAAAAAAAAAAAAAAAAAAAAAAAAAAAAAAAAAAAAAAAAAAAAAAAAAAAAAAAAAAAAAAAAAAAAAAAAAAAAAAAAAAAAAAAAAAAAAAAAAAAAAAAAAAAAAAAAAAAAAAAAAAAAAAAAAAAAAAAAAAAAAAAAAAAAAAAAAAAAAAAAAAAAAAAAAAAAAAAAAAAAAAAAAAAAAAAAAAAAAAAAAAAAAAAAAAAAAAAAAAAAAAAAAAAAAAAAAAAAAAAAAAAAAAAAAAAAAAAAAAAAAAAAAAAAAAAAAAAAAAAAAAAAAAAAAAAAAAAAAAAAAAAAAAAAAAAAAAAAAAAAAAAAAAAAAAAAAAAAAAAAAAAAAAAAAAAAAAAAAAAAAAAAAAAAAAAAAAAAAAAAAAAAAAAAAAAAAAAAAAAAAAAAAAAAAAAAAAAAAAAAAAAAAAAAAAAAPZYQPv4O9VAaq/uH5rmnrH5BGDY9apYcBgptuydTI3/HzyK0av3yhCI2A8R30Iaprnf2w1BhziKXeSc5KkbwkUEvOU=</c2pa:manifest></metadata>
<defs><clipPath id="cc"><path clip-rule="evenodd" d="M-0.6400,0.0000 a0.6400,0.6400 0 1,0 1.2800,0 a0.6400,0.6400 0 1,0 -1.2800,0 Z M-0.0500,-0.2000 a0.2500,0.2500 0 1,0 0.5000,0 a0.2500,0.2500 0 1,0 -0.5000,0 Z"/></clipPath><clipPath id="bb"><circle cx="0.2" cy="-0.2" r="0.2"/></clipPath></defs>
<circle r="1" fill="#10231a"/>
<path d="M-0.9650,0.0000 a0.9650,0.9650 0 1,0 1.9300,0 a0.9650,0.9650 0 1,0 -1.9300,0 Z" fill="none" stroke="#ece6d6" stroke-width=".022"/>
<path d="M-0.6650,0.0000 a0.6650,0.6650 0 1,0 1.3300,0 a0.6650,0.6650 0 1,0 -1.3300,0 Z" fill="none" stroke="#ece6d6" stroke-width=".022"/>
<path d="M-0.4696,-0.5985L-0.5801,-0.7531L-0.5551,-0.7710L-0.4604,-0.6384L-0.4241,-0.6643L-0.4084,-0.6423ZM-0.3163,-0.6887Q-0.3379,-0.6788 -0.3517,-0.6835Q-0.3655,-0.6882 -0.3757,-0.7093Q-0.3813,-0.7209 -0.3871,-0.7332Q-0.3929,-0.7454 -0.3986,-0.7579Q-0.4043,-0.7703 -0.4098,-0.7827Q-0.4153,-0.7951 -0.4206,-0.8070Q-0.4298,-0.8284 -0.4244,-0.8419Q-0.4190,-0.8553 -0.3974,-0.8652Q-0.3757,-0.8752 -0.3621,-0.8705Q-0.3486,-0.8657 -0.3382,-0.8449Q-0.3324,-0.8330 -0.3265,-0.8208Q-0.3207,-0.8086 -0.3149,-0.7962Q-0.3092,-0.7837 -0.3038,-0.7713Q-0.2984,-0.7590 -0.2933,-0.7471Q-0.2842,-0.7255 -0.2894,-0.7121Q-0.2946,-0.6987 -0.3163,-0.6887ZM-0.3268,-0.7115Q-0.3201,-0.7145 -0.3182,-0.7189Q-0.3163,-0.7233 -0.3188,-0.7292Q-0.3240,-0.7416 -0.3301,-0.7555Q-0.3362,-0.7693 -0.3428,-0.7836Q-0.3493,-0.7979 -0.3559,-0.8115Q-0.3624,-0.8251 -0.3684,-0.8371Q-0.3711,-0.8428 -0.3758,-0.8441Q-0.3804,-0.8455 -0.3869,-0.8425Q-0.3934,-0.8395 -0.3954,-0.8351Q-0.3975,-0.8307 -0.3950,-0.8249Q-0.3899,-0.8125 -0.3839,-0.7987Q-0.3778,-0.7848 -0.3713,-0.7705Q-0.3647,-0.7562 -0.3581,-0.7426Q-0.3515,-0.7290 -0.3455,-0.7170Q-0.3426,-0.7113 -0.3379,-0.7099Q-0.3332,-0.7085 -0.3268,-0.7115ZM-0.2149,-0.7325L-0.2510,-0.9190L-0.2017,-0.9286L-0.1734,-0.8593L-0.1524,-0.7724L-0.1467,-0.7735L-0.1598,-0.8620L-0.1592,-0.9368L-0.1101,-0.9463L-0.0740,-0.7598L-0.1042,-0.7539L-0.1151,-0.8106L-0.1293,-0.9150L-0.1354,-0.9139L-0.1255,-0.8065L-0.1279,-0.7496L-0.1612,-0.7431L-0.1845,-0.7951L-0.2155,-0.8983L-0.2213,-0.8972L-0.1957,-0.7950L-0.1847,-0.7383ZM-0.0152,-0.7615L0.0181,-0.9501L0.0675,-0.9479L0.0837,-0.7570L0.0523,-0.7584L0.0500,-0.8021L0.0225,-0.8034L0.0162,-0.7600ZM0.0265,-0.8303L0.0483,-0.8293L0.0461,-0.8713L0.0449,-0.9218L0.0383,-0.9221L0.0326,-0.8719ZM0.1354,-0.7490L0.1414,-0.7739L0.2230,-0.8956L0.1760,-0.9068L0.1823,-0.9332L0.2612,-0.9144L0.2551,-0.8891L0.1716,-0.7682L0.2198,-0.7567L0.2135,-0.7304ZM0.2677,-0.7125L0.2779,-0.7359L0.3801,-0.8411L0.3359,-0.8605L0.3468,-0.8853L0.4210,-0.8526L0.4106,-0.8288L0.3067,-0.7249L0.3520,-0.7050L0.3411,-0.6802ZM0.4321,-0.6226Q0.4125,-0.6362 0.4096,-0.6505Q0.4066,-0.6647 0.4196,-0.6842Q0.4267,-0.6950 0.4343,-0.7062Q0.4419,-0.7174 0.4497,-0.7287Q0.4575,-0.7400 0.4654,-0.7510Q0.4733,-0.7620 0.4809,-0.7726Q0.4946,-0.7915 0.5089,-0.7936Q0.5233,-0.7958 0.5428,-0.7823Q0.5624,-0.7687 0.5652,-0.7546Q0.5680,-0.7405 0.5553,-0.7210Q0.5481,-0.7099 0.5406,-0.6987Q0.5331,-0.6874 0.5252,-0.6761Q0.5174,-0.6649 0.5095,-0.6539Q0.5017,-0.6430 0.4940,-0.6326Q0.4801,-0.6137 0.4659,-0.6114Q0.4517,-0.6090 0.4321,-0.6226ZM0.4463,-0.6432Q0.4524,-0.6390 0.4571,-0.6396Q0.4619,-0.6402 0.4656,-0.6454Q0.4737,-0.6562 0.4825,-0.6685Q0.4913,-0.6808 0.5003,-0.6937Q0.5093,-0.7067 0.5177,-0.7192Q0.5261,-0.7317 0.5333,-0.7430Q0.5368,-0.7482 0.5356,-0.7529Q0.5344,-0.7576 0.5285,-0.7617Q0.5227,-0.7657 0.5178,-0.7652Q0.5130,-0.7648 0.5092,-0.7597Q0.5012,-0.7490 0.4924,-0.7368Q0.4835,-0.7245 0.4746,-0.7116Q0.4656,-0.6987 0.4572,-0.6861Q0.4488,-0.6735 0.4415,-0.6622Q0.4381,-0.6568 0.4393,-0.6520Q0.4405,-0.6473 0.4463,-0.6432Z" fill="#ece6d6"/><path d="M-0.5904,0.7213Q-0.6087,0.7064 -0.6101,0.6922Q-0.6115,0.6779 -0.5975,0.6592Q-0.5947,0.6555 -0.5915,0.6517Q-0.5884,0.6478 -0.5851,0.6441Q-0.5817,0.6405 -0.5784,0.6371L-0.5560,0.6554Q-0.5622,0.6621 -0.5679,0.6690Q-0.5737,0.6759 -0.5781,0.6823Q-0.5817,0.6876 -0.5810,0.6925Q-0.5802,0.6973 -0.5745,0.7019Q-0.5689,0.7065 -0.5643,0.7061Q-0.5596,0.7057 -0.5551,0.7011Q-0.5517,0.6977 -0.5489,0.6945Q-0.5460,0.6913 -0.5434,0.6878Q-0.5408,0.6843 -0.5380,0.6802Q-0.5346,0.6754 -0.5337,0.6703Q-0.5328,0.6652 -0.5364,0.6603L-0.5472,0.6456Q-0.5543,0.6360 -0.5558,0.6274Q-0.5574,0.6188 -0.5542,0.6103Q-0.5511,0.6019 -0.5440,0.5927Q-0.5404,0.5881 -0.5370,0.5839Q-0.5335,0.5797 -0.5301,0.5757Q-0.5198,0.5640 -0.5102,0.5595Q-0.5006,0.5550 -0.4902,0.5578Q-0.4799,0.5607 -0.4673,0.5710Q-0.4496,0.5855 -0.4480,0.5998Q-0.4464,0.6141 -0.4604,0.6327Q-0.4637,0.6371 -0.4688,0.6431Q-0.4740,0.6492 -0.4789,0.6547L-0.5017,0.6360Q-0.4960,0.6296 -0.4904,0.6231Q-0.4849,0.6165 -0.4798,0.6096Q-0.4760,0.6046 -0.4769,0.5997Q-0.4779,0.5948 -0.4832,0.5904Q-0.4889,0.5857 -0.4936,0.5860Q-0.4983,0.5863 -0.5028,0.5907Q-0.5076,0.5957 -0.5120,0.6010Q-0.5164,0.6064 -0.5203,0.6121Q-0.5237,0.6172 -0.5245,0.6221Q-0.5252,0.6271 -0.5212,0.6323L-0.5115,0.6450Q-0.5039,0.6551 -0.5022,0.6641Q-0.5005,0.6730 -0.5038,0.6818Q-0.5070,0.6905 -0.5141,0.6998Q-0.5165,0.7029 -0.5188,0.7056Q-0.5210,0.7083 -0.5232,0.7109Q-0.5254,0.7135 -0.5279,0.7162Q-0.5434,0.7337 -0.5577,0.7351Q-0.5719,0.7364 -0.5904,0.7213ZM-0.5026,0.7836L-0.4073,0.6192L-0.3712,0.6401Q-0.3505,0.6522 -0.3462,0.6660Q-0.3420,0.6799 -0.3526,0.6999Q-0.3581,0.7101 -0.3629,0.7183Q-0.3677,0.7266 -0.3734,0.7357Q-0.3855,0.7549 -0.3997,0.7581Q-0.4139,0.7613 -0.4347,0.7493L-0.4440,0.7439L-0.4760,0.7990ZM-0.4304,0.7204L-0.4211,0.7259Q-0.4144,0.7297 -0.4094,0.7285Q-0.4044,0.7273 -0.4007,0.7217Q-0.3970,0.7161 -0.3930,0.7094Q-0.3890,0.7027 -0.3852,0.6959Q-0.3814,0.6892 -0.3784,0.6832Q-0.3753,0.6772 -0.3768,0.6723Q-0.3782,0.6674 -0.3848,0.6636L-0.3943,0.6581ZM-0.3305,0.8716Q-0.3527,0.8631 -0.3591,0.8500Q-0.3654,0.8369 -0.3575,0.8148Q-0.3532,0.8027 -0.3485,0.7899Q-0.3439,0.7772 -0.3390,0.7644Q-0.3342,0.7516 -0.3292,0.7390Q-0.3242,0.7264 -0.3194,0.7142Q-0.3107,0.6927 -0.2973,0.6871Q-0.2839,0.6815 -0.2616,0.6899Q-0.2393,0.6984 -0.2332,0.7114Q-0.2271,0.7244 -0.2347,0.7464Q-0.2390,0.7588 -0.2436,0.7716Q-0.2482,0.7843 -0.2530,0.7971Q-0.2579,0.8100 -0.2629,0.8225Q-0.2679,0.8350 -0.2728,0.8470Q-0.2818,0.8686 -0.2950,0.8743Q-0.3082,0.8800 -0.3305,0.8716ZM-0.3217,0.8481Q-0.3148,0.8507 -0.3103,0.8490Q-0.3058,0.8473 -0.3034,0.8413Q-0.2982,0.8289 -0.2927,0.8149Q-0.2871,0.8008 -0.2815,0.7861Q-0.2759,0.7714 -0.2708,0.7572Q-0.2657,0.7430 -0.2613,0.7303Q-0.2592,0.7244 -0.2615,0.7201Q-0.2639,0.7159 -0.2705,0.7133Q-0.2772,0.7108 -0.2818,0.7125Q-0.2863,0.7141 -0.2888,0.7199Q-0.2940,0.7323 -0.2996,0.7463Q-0.3052,0.7603 -0.3108,0.7750Q-0.3164,0.7897 -0.3215,0.8039Q-0.3266,0.8182 -0.3309,0.8309Q-0.3329,0.8370 -0.3306,0.8413Q-0.3283,0.8456 -0.3217,0.8481ZM-0.2250,0.9034L-0.1876,0.7171L-0.1467,0.7253Q-0.1232,0.7300 -0.1147,0.7418Q-0.1062,0.7536 -0.1099,0.7760Q-0.1111,0.7835 -0.1122,0.7895Q-0.1133,0.7955 -0.1146,0.8013Q-0.1159,0.8072 -0.1176,0.8141Q-0.1209,0.8283 -0.1270,0.8363Q-0.1331,0.8443 -0.1432,0.8470L-0.1362,0.9212L-0.1681,0.9148L-0.1725,0.8463L-0.1818,0.8445L-0.1948,0.9094ZM-0.1765,0.8179L-0.1659,0.8201Q-0.1583,0.8216 -0.1539,0.8189Q-0.1496,0.8162 -0.1479,0.8096Q-0.1462,0.8032 -0.1447,0.7961Q-0.1432,0.7891 -0.1419,0.7821Q-0.1406,0.7750 -0.1396,0.7684Q-0.1386,0.7617 -0.1416,0.7575Q-0.1446,0.7534 -0.1520,0.7519L-0.1627,0.7497ZM-0.0564,0.9284L-0.0492,0.7657L-0.0780,0.7644L-0.0768,0.7373L0.0116,0.7412L0.0104,0.7683L-0.0186,0.7670L-0.0258,0.9298ZM0.1997,0.9106Q0.1761,0.9158 0.1639,0.9081Q0.1517,0.9005 0.1462,0.8777Q0.1435,0.8664 0.1404,0.8530Q0.1374,0.8395 0.1343,0.8254Q0.1312,0.8112 0.1283,0.7977Q0.1255,0.7841 0.1232,0.7726Q0.1193,0.7528 0.1272,0.7393Q0.1351,0.7258 0.1582,0.7207Q0.1809,0.7157 0.1933,0.7233Q0.2056,0.7309 0.2112,0.7535Q0.2122,0.7575 0.2133,0.7625Q0.2144,0.7675 0.2154,0.7726Q0.2164,0.7776 0.2171,0.7816L0.1872,0.7882Q0.1862,0.7834 0.1851,0.7774Q0.1839,0.7714 0.1825,0.7653Q0.1812,0.7593 0.1801,0.7546Q0.1786,0.7485 0.1744,0.7461Q0.1702,0.7437 0.1635,0.7452Q0.1567,0.7467 0.1538,0.7506Q0.1509,0.7545 0.1520,0.7607Q0.1545,0.7743 0.1575,0.7890Q0.1606,0.8038 0.1639,0.8189Q0.1672,0.8340 0.1705,0.8486Q0.1739,0.8633 0.1773,0.8766Q0.1789,0.8828 0.1832,0.8852Q0.1875,0.8876 0.1944,0.8861Q0.2016,0.8846 0.2046,0.8806Q0.2076,0.8766 0.2063,0.8703Q0.2054,0.8655 0.2041,0.8593Q0.2028,0.8532 0.2014,0.8470Q0.2000,0.8409 0.1989,0.8363L0.2288,0.8297Q0.2305,0.8363 0.2322,0.8439Q0.2338,0.8515 0.2351,0.8583Q0.2395,0.8813 0.2313,0.8934Q0.2230,0.9055 0.1997,0.9106ZM0.3040,0.8796L0.2354,0.7024L0.2640,0.6913L0.3229,0.8432L0.3644,0.8271L0.3742,0.8524ZM0.4661,0.8072Q0.4452,0.8193 0.4311,0.8158Q0.4171,0.8124 0.4051,0.7923Q0.3862,0.7605 0.3675,0.7281Q0.3487,0.6956 0.3308,0.6635L0.3574,0.6481Q0.3693,0.6697 0.3824,0.6925Q0.3955,0.7153 0.4087,0.7380Q0.4219,0.7606 0.4344,0.7818Q0.4375,0.7872 0.4425,0.7882Q0.4474,0.7891 0.4536,0.7855Q0.4598,0.7819 0.4613,0.7773Q0.4628,0.7726 0.4597,0.7672Q0.4476,0.7458 0.4347,0.7230Q0.4217,0.7001 0.4085,0.6774Q0.3953,0.6546 0.3826,0.6336L0.4091,0.6183Q0.4280,0.6499 0.4468,0.6823Q0.4655,0.7148 0.4834,0.7470Q0.4948,0.7675 0.4909,0.7813Q0.4870,0.7952 0.4661,0.8072ZM0.5565,0.7463L0.4362,0.5993L0.4671,0.5739Q0.4857,0.5587 0.5005,0.5594Q0.5153,0.5600 0.5297,0.5775L0.5360,0.5852Q0.5390,0.5888 0.5416,0.5923Q0.5487,0.6022 0.5497,0.6106Q0.5507,0.6191 0.5452,0.6277L0.5487,0.6319Q0.5585,0.6280 0.5667,0.6307Q0.5749,0.6334 0.5832,0.6428Q0.5869,0.6470 0.5899,0.6507Q0.5929,0.6543 0.5964,0.6589Q0.6099,0.6769 0.6080,0.6913Q0.6061,0.7057 0.5876,0.7209ZM0.5632,0.7059L0.5704,0.6999Q0.5762,0.6952 0.5768,0.6896Q0.5773,0.6840 0.5724,0.6780Q0.5694,0.6741 0.5665,0.6705Q0.5636,0.6670 0.5604,0.6633Q0.5531,0.6544 0.5472,0.6531Q0.5412,0.6517 0.5349,0.6569L0.5278,0.6627ZM0.5107,0.6417L0.5178,0.6359Q0.5237,0.6311 0.5236,0.6247Q0.5234,0.6184 0.5175,0.6109L0.5050,0.5957Q0.5007,0.5905 0.4954,0.5903Q0.4902,0.5901 0.4843,0.5949L0.4771,0.6008Z" fill="#ece6d6"/>
<circle cx="-.82" cy="0" r=".03" fill="#d9f24a"/><circle cx=".82" cy="0" r=".03" fill="#d9f24a"/>
<g clip-path="url(#cc)" fill="none" stroke="#ece6d6" stroke-width=".026" stroke-linejoin="miter"><path d="M-.30,-.46H.30V.46H-.30Z M-.22,-.46V.46 M.22,-.46V.46 M-.22,-.25H.22 M-.22,.25H.22 M0,-.25V.25"/><path d="M-.38,0H.38" stroke-width=".04"/></g>
<circle cx="0.2" cy="-0.2" r="0.2" fill="#d9f24a"/>
<g clip-path="url(#bb)" fill="none" stroke="#10231a" stroke-width=".022" transform="rotate(-35 0.2 -0.2)"><circle cx="-0.10000000000000003" cy="-0.2" r="0.22400000000000003"/><circle cx="0.5" cy="-0.2" r="0.22400000000000003"/></g>
</svg>